#tb 0: 1/25
0,          0,          0,        1,   152064, 0xabf9ae05
0,          1,          1,        1,   152064, 0x20418b16
0,          2,          2,        1,   152064, 0xe941572f
0,          3,          3,        1,   152064, 0xcf63e20e
0,          4,          4,        1,   152064, 0x57dedcde
0,          5,          5,        1,   152064, 0x4de7bf34
0,          6,          6,        1,   152064, 0xc8014983
0,          7,          7,        1,   152064, 0x5ab946fc
0,          8,          8,        1,   152064, 0x2ca02582
0,          9,          9,        1,   152064, 0x9c95435d
0,         10,         10,        1,   152064, 0x8371b963
0,         11,         11,        1,   152064, 0xa0f1af67
0,         12,         12,        1,   152064, 0xf1155345
0,         13,         13,        1,   152064, 0x66a71c79
0,         14,         14,        1,   152064, 0x509db08a
0,         15,         15,        1,   152064, 0x3d457728
0,         16,         16,        1,   152064, 0x66035e2b
0,         17,         17,        1,   152064, 0xa4113115
0,         18,         18,        1,   152064, 0x3d35d3c0
0,         19,         19,        1,   152064, 0x5117d324
0,         20,         20,        1,   152064, 0x7b0c7660
0,         21,         21,        1,   152064, 0x0eacf9ba
0,         22,         22,        1,   152064, 0x358d0486
0,         23,         23,        1,   152064, 0xc2dbeadc
0,         24,         24,        1,   152064, 0x61b2c275
0,         25,         25,        1,   152064, 0xbb3697d2
0,         26,         26,        1,   152064, 0x44e58e8a
0,         27,         27,        1,   152064, 0x21f6464f
0,         28,         28,        1,   152064, 0xdb3416f2
0,         29,         29,        1,   152064, 0x8201d928
0,         30,         30,        1,   152064, 0x4fdfb595
0,         31,         31,        1,   152064, 0x28cff0a5
0,         32,         32,        1,   152064, 0x5d77cab2
0,         33,         33,        1,   152064, 0x2218b509
0,         34,         34,        1,   152064, 0xaf40790a
0,         35,         35,        1,   152064, 0xaed42b3b
0,         36,         36,        1,   152064, 0x866d2462
0,         37,         37,        1,   152064, 0x23a7111a
0,         38,         38,        1,   152064, 0xceefc9d0
0,         39,         39,        1,   152064, 0x88dba819
0,         40,         40,        1,   152064, 0x19b350f3
0,         41,         41,        1,   152064, 0x85a857e5
0,         42,         42,        1,   152064, 0x02ca7c6f
0,         43,         43,        1,   152064, 0xe2de12d0
0,         44,         44,        1,   152064, 0x84a36173
0,         45,         45,        1,   152064, 0xa8d1b139
0,         46,         46,        1,   152064, 0x6b72ab43
0,         47,         47,        1,   152064, 0x5fba909e
0,         48,         48,        1,   152064, 0x43ab27f2
0,         49,         49,        1,   152064, 0x414cdd60
0,         50,         50,        1,   152064, 0x080fde7b
0,         51,         51,        1,   152064, 0xb1b7e4db
0,         52,         52,        1,   152064, 0xf17db2da
0,         53,         53,        1,   152064, 0x248b88e9
0,         54,         54,        1,   152064, 0x6b68301b
0,         55,         55,        1,   152064, 0xc581100d
0,         56,         56,        1,   152064, 0x8e9cf443
0,         57,         57,        1,   152064, 0x3c4ec87a
0,         58,         58,        1,   152064, 0x6e417a1f
0,         59,         59,        1,   152064, 0x02c7ecc4
0,         60,         60,        1,   152064, 0xb7d7f1dc
0,         61,         61,        1,   152064, 0xc44cf3fa
0,         62,         62,        1,   152064, 0x0f8db331
0,         63,         63,        1,   152064, 0x71fe651b
0,         64,         64,        1,   152064, 0xdd0b9b70
0,         65,         65,        1,   152064, 0x4f6114c3
0,         66,         66,        1,   152064, 0x5a64e819
0,         67,         67,        1,   152064, 0x20bce1a1
0,         68,         68,        1,   152064, 0x6b196d49
0,         69,         69,        1,   152064, 0x7c1535a6
0,         70,         70,        1,   152064, 0x9b5225a4
0,         71,         71,        1,   152064, 0x72c5f185
0,         72,         72,        1,   152064, 0x3da4f50d
0,         73,         73,        1,   152064, 0xd7f7af48
0,         74,         74,        1,   152064, 0x0e1a8f2e
0,         75,         75,        1,   152064, 0xb8b036cc
0,         76,         76,        1,   152064, 0x003a2b62
0,         77,         77,        1,   152064, 0x7777f6bd
0,         78,         78,        1,   152064, 0x91003021
0,         79,         79,        1,   152064, 0xb2e1af8c
0,         80,         80,        1,   152064, 0xae6676bc
0,         81,         81,        1,   152064, 0x72f55c98
0,         82,         82,        1,   152064, 0x9dfb52bc
0,         83,         83,        1,   152064, 0x4b6b0db4
0,         84,         84,        1,   152064, 0xba8bab86
0,         85,         85,        1,   152064, 0x775a8da0
0,         86,         86,        1,   152064, 0x96a35194
0,         87,         87,        1,   152064, 0x17732a58
0,         88,         88,        1,   152064, 0x45eef560
0,         89,         89,        1,   152064, 0x95c79208
